<?xml version="1.0" encoding="UTF-8" standalone="no"?>
<!-- Created with Inkscape (http://www.inkscape.org/) -->

<svg
   width="6.2086029mm"
   height="7.3801727mm"
   viewBox="0 0 6.2086029 7.3801727"
   version="1.1"
   id="svg5"
   xml:space="preserve"
   inkscape:version="1.2.2 (732a01da63, 2022-12-09)"
   sodipodi:docname="recipedocious.svg"
   xmlns:inkscape="http://www.inkscape.org/namespaces/inkscape"
   xmlns:sodipodi="http://sodipodi.sourceforge.net/DTD/sodipodi-0.dtd"
   xmlns="http://www.w3.org/2000/svg"
   xmlns:svg="http://www.w3.org/2000/svg"><sodipodi:namedview
     id="namedview7"
     pagecolor="#ffffff"
     bordercolor="#000000"
     borderopacity="0.25"
     inkscape:showpageshadow="2"
     inkscape:pageopacity="0.0"
     inkscape:pagecheckerboard="0"
     inkscape:deskcolor="#d1d1d1"
     inkscape:document-units="mm"
     showgrid="false"
     inkscape:zoom="3.7415825"
     inkscape:cx="799.26074"
     inkscape:cy="518.49719"
     inkscape:window-width="1366"
     inkscape:window-height="705"
     inkscape:window-x="-8"
     inkscape:window-y="-8"
     inkscape:window-maximized="1"
     inkscape:current-layer="g3791"
     showguides="true" /><defs
     id="defs2" /><g
     inkscape:label="Layer 1"
     inkscape:groupmode="layer"
     id="layer1"
     transform="translate(-191.50019,-123.9384)"><g
       id="g3795"
       transform="matrix(-1,0,0,1,361.20753,1.7500893)"><g
         id="g3793"><g
           id="g3791"><g
             id="g4560"><g
               id="g3783"
               transform="matrix(0.44841232,0,0,0.44841232,129.94718,32.396673)"
               style="fill:none;stroke:#008000"><path
                 id="path3779"
                 style="fill:none;stroke:#008000;stroke-width:1.4;stroke-dasharray:none"
                 d="m 81.745915,202.38455 a 6.222857,6.222857 0 0 0 -6.222876,6.22236 6.222857,6.222857 0 0 0 0.01033,0.28318 h 12.424565 a 6.222857,6.222857 0 0 0 0.01085,-0.28318 6.222857,6.222857 0 0 0 -6.222876,-6.22236 z" /><circle
                 style="fill:none;stroke:#008000;stroke-width:0.380954;stroke-dasharray:none"
                 id="circle3781"
                 cx="81.674995"
                 cy="201.287"
                 r="0.853064" /></g><path
               id="path3785"
               style="fill:none;stroke:#008000;stroke-width:1.56221;stroke-dasharray:none"
               d="m 168.91715,127.13286 a 2.4548926,2.4548926 0 0 1 -2.32075,1.65451 2.4548926,2.4548926 0 0 1 -2.32075,-1.65452" /><path
               style="fill:#ffffff;stroke:none;stroke-width:0.358729;stroke-dasharray:none;stroke-opacity:1"
               d="m 164.36332,125.63311 0.77355,-1.50226 -0.60539,1.45742 z"
               id="path3787" /><path
               id="path3789"
               style="fill:#008000;stroke:none;stroke-width:0.341839;stroke-dasharray:none;stroke-opacity:1"
               d="m 165.41858,123.94754 c -0.60481,0.30383 -0.98787,0.93124 -0.98807,1.61836 2.6e-4,0.0187 9e-4,0.0374 0.002,0.0561 l 0.27983,0.0897 c -4.5e-4,-0.015 0.0103,-0.11965 0.0101,-0.13464 5e-5,-0.64062 0.25799,-1.24401 0.69656,-1.62948 z"
               sodipodi:nodetypes="cccccc" /></g></g></g></g></g></svg>
